<svg width="122" height="26" viewBox="0 0 122 26" fill="none" xmlns="http://www.w3.org/2000/svg">
<path d="M45.5731 4.81025C45.651 5.49896 45.69 6.16364 45.69 6.8043C45.69 7.44496 45.6744 8.03757 45.6432 8.58212C45.4406 8.64619 45.1056 8.67822 44.6381 8.67822C44.5602 7.70122 44.3654 7.02052 44.0537 6.63613C43.7421 6.25173 43.2512 6.05954 42.5811 6.05954H40.9215V18.6485C41.4669 18.8567 42.0747 18.9608 42.7448 18.9608C42.7448 19.0248 42.7448 19.137 42.7448 19.2971C42.7448 19.4573 42.7214 19.7135 42.6746 20.0659H36.1531C36.1531 19.9698 36.1531 19.8257 36.1531 19.6335C36.1531 19.4252 36.192 19.201 36.27 18.9608C36.8777 18.8807 37.3062 18.7526 37.5556 18.5764C37.8205 18.4002 37.9529 18.0879 37.9529 17.6394V6.05954H36.3167C35.6311 6.05954 35.1324 6.25173 34.8207 6.63613C34.5091 7.02052 34.3221 7.70122 34.2597 8.67822C33.7767 8.67822 33.4338 8.64619 33.2313 8.58212C33.1845 8.0696 33.1611 7.50102 33.1611 6.87637C33.1611 6.25173 33.2079 5.56303 33.3014 4.81025H45.5731ZM58.1614 12.4741V18.6485C58.8315 18.8406 59.3613 18.9448 59.7509 18.9608C59.7665 19.0409 59.7742 19.177 59.7742 19.3692C59.7742 19.5454 59.7353 19.7776 59.6574 20.0659H53.9072C53.8916 19.9538 53.8838 19.8016 53.8838 19.6094C53.8838 19.4012 53.9228 19.185 54.0007 18.9608C54.4682 18.8807 54.7954 18.7526 54.9824 18.5764C55.1694 18.4002 55.2629 18.0879 55.2629 17.6394V12.8105C55.2629 12.1218 55.1071 11.6092 54.7954 11.2729C54.4994 10.9205 54.0864 10.7443 53.5566 10.7443C52.4813 10.7443 51.6632 11.4891 51.1022 12.9786V18.6485C51.4918 18.8246 51.9593 18.9287 52.5047 18.9608C52.5047 19.0248 52.5047 19.137 52.5047 19.2971C52.5047 19.4573 52.4813 19.7135 52.4346 20.0659H46.6143C46.5987 19.9538 46.5909 19.8016 46.5909 19.6094C46.5909 19.4012 46.6299 19.185 46.7078 18.9608C47.222 18.8807 47.596 18.7526 47.8298 18.5764C48.0791 18.3842 48.2038 18.0719 48.2038 17.6394V4.8583C47.9544 4.82627 47.6895 4.81025 47.409 4.81025C47.1441 4.81025 46.8792 4.81826 46.6143 4.83428C46.6455 4.33777 46.7 3.9774 46.7779 3.75317C48.1492 3.25666 49.5907 2.96036 51.1022 2.86426V11.0326C51.897 9.51108 53.1047 8.7503 54.7253 8.7503C55.7382 8.7503 56.5641 9.07863 57.203 9.73531C57.8419 10.376 58.1614 11.2889 58.1614 12.4741ZM62.5618 17.6154V10.8885C62.3125 10.8565 62.0476 10.8404 61.7671 10.8404C61.5022 10.8404 61.2372 10.8484 60.9723 10.8645C61.0035 10.384 61.058 10.0316 61.136 9.80738C62.4294 9.32689 63.7773 9.01457 65.1798 8.87042C65.3356 9.86344 65.4291 10.9606 65.4603 12.1618C65.8498 11.1528 66.4031 10.3359 67.1199 9.71128C67.8523 9.07062 68.6626 8.7503 69.5508 8.7503C69.6288 9.03859 69.6677 9.40697 69.6677 9.85543C69.6677 10.2879 69.5898 10.8484 69.434 11.5372C67.0653 11.5372 65.7408 12.4661 65.4603 14.324V18.5043C66.1148 18.7606 66.8394 18.9127 67.6341 18.9608C67.6341 19.0409 67.6341 19.177 67.6341 19.3692C67.6341 19.5454 67.6029 19.7776 67.5406 20.0659H60.9723C60.9568 19.9538 60.949 19.8016 60.949 19.6094C60.949 19.4012 60.9879 19.185 61.0658 18.9608C61.5801 18.8807 61.9541 18.7526 62.1878 18.5764C62.4371 18.3842 62.5618 18.0639 62.5618 17.6154ZM78.213 14.9487C78.213 11.7294 77.3637 10.1197 75.6651 10.1197C74.0912 10.1197 73.3043 11.4731 73.3043 14.1799C73.3043 14.308 73.3043 14.4361 73.3043 14.5643C73.429 17.4793 74.2938 18.9367 75.8989 18.9367C77.4416 18.9367 78.213 17.6074 78.213 14.9487ZM75.782 8.7503C77.4338 8.7503 78.7662 9.25481 79.7791 10.2638C80.792 11.2729 81.2984 12.6983 81.2984 14.5402C81.2984 16.3821 80.7842 17.8156 79.7557 18.8406C78.7272 19.8497 77.3871 20.3542 75.7353 20.3542C74.0835 20.3542 72.7511 19.8497 71.7382 18.8406C70.7409 17.8316 70.2422 16.4062 70.2422 14.5643C70.2422 12.7224 70.7565 11.2969 71.7849 10.2879C72.8134 9.26282 74.1458 8.7503 75.782 8.7503ZM93.6208 11.2248V18.168C94.1194 18.248 94.5869 18.2881 95.0233 18.2881C95.07 18.4803 95.0934 18.6645 95.0934 18.8406C95.0934 19.0168 95.0856 19.169 95.07 19.2971C93.9013 19.8417 92.5611 20.138 91.0496 20.186C90.9093 19.4493 90.8158 18.7125 90.7691 17.9758C89.9276 19.5614 88.7121 20.3542 87.1226 20.3542C86.1097 20.3542 85.2838 20.0259 84.6449 19.3692C84.006 18.6965 83.6865 17.7675 83.6865 16.5823V10.7924C83.4528 10.7764 83.2113 10.7684 82.9619 10.7684C82.7282 10.7684 82.5178 10.7684 82.3308 10.7684C82.362 10.2879 82.4165 9.93551 82.4944 9.71128C83.8658 9.18274 85.2215 8.87843 86.5616 8.79835V16.246C86.5616 16.9187 86.7175 17.4392 87.0291 17.8076C87.3564 18.1599 87.7771 18.3361 88.2914 18.3361C89.3354 18.3361 90.1535 17.5673 90.7457 16.0298V11.8255C90.7457 10.8645 90.4185 10.2398 89.764 9.95153C89.8263 9.64722 89.9042 9.42299 89.9977 9.27884C90.8548 8.94249 91.7742 8.77432 92.7559 8.77432C93.0676 8.77432 93.387 8.79034 93.7143 8.82237C93.652 9.39896 93.6208 10.1998 93.6208 11.2248ZM100.228 12.2579C100.228 14.292 100.82 15.309 102.005 15.309C102.503 15.309 102.893 15.1008 103.174 14.6844C103.454 14.268 103.594 13.6433 103.594 12.8105C103.594 10.8084 103.002 9.80738 101.818 9.80738C100.758 9.80738 100.228 10.6242 100.228 12.2579ZM104.693 20.4022H100.135C99.8231 20.4022 99.5426 20.3782 99.2933 20.3302C98.857 20.7786 98.6388 21.2912 98.6388 21.8678C98.6388 22.4443 98.9193 22.8928 99.4803 23.2131C100.041 23.5495 100.883 23.7177 102.005 23.7177C103.127 23.7177 104.054 23.4854 104.786 23.0209C105.519 22.5565 105.885 22.0359 105.885 21.4593C105.885 20.7546 105.488 20.4022 104.693 20.4022ZM101.046 26C99.7218 26 98.6466 25.7037 97.8207 25.1111C96.9948 24.5345 96.5818 23.7096 96.5818 22.6365C96.5818 21.5634 97.1506 20.6905 98.2882 20.0179C97.5558 19.5854 97.1896 18.9207 97.1896 18.0238C97.1896 17.4953 97.3454 17.0228 97.6571 16.6064C97.9843 16.1899 98.4129 15.8696 98.9427 15.6454C97.7428 14.9086 97.1428 13.9156 97.1428 12.6663C97.1428 11.417 97.5947 10.456 98.4986 9.78336C99.4024 9.09465 100.501 8.7503 101.794 8.7503C103.088 8.7503 104.147 9.01457 104.973 9.54311C105.846 8.82237 106.984 8.462 108.386 8.462C108.402 8.5581 108.409 8.72627 108.409 8.96652C108.409 9.19075 108.37 9.57514 108.293 10.1197L105.932 10.384C106.399 11.0086 106.633 11.7294 106.633 12.5462C106.633 13.7154 106.189 14.6524 105.301 15.3571C104.412 16.0458 103.283 16.3901 101.911 16.3901C101.21 16.3901 100.532 16.286 99.8777 16.0778C99.3323 16.3661 99.0596 16.7345 99.0596 17.1829C99.0596 17.4552 99.1609 17.6795 99.3634 17.8556C99.566 18.0158 99.8543 18.0959 100.228 18.0959L104.81 18.0719C106.804 18.0719 107.802 18.8887 107.802 20.5224C107.786 21.9158 107.124 23.1731 105.815 24.2942C104.506 25.4314 102.916 26 101.046 26ZM120.387 12.4741V18.6485C121.057 18.8406 121.587 18.9448 121.977 18.9608C121.992 19.0409 122 19.177 122 19.3692C122 19.5454 121.961 19.7776 121.883 20.0659H116.133C116.118 19.9538 116.11 19.8016 116.11 19.6094C116.11 19.4012 116.149 19.185 116.227 18.9608C116.694 18.8807 117.021 18.7526 117.208 18.5764C117.395 18.4002 117.489 18.0879 117.489 17.6394V12.8105C117.489 12.1218 117.333 11.6092 117.021 11.2729C116.725 10.9205 116.312 10.7443 115.783 10.7443C114.707 10.7443 113.889 11.4891 113.328 12.9786V18.6485C113.718 18.8246 114.185 18.9287 114.731 18.9608C114.731 19.0248 114.731 19.137 114.731 19.2971C114.731 19.4573 114.707 19.7135 114.661 20.0659H108.84C108.825 19.9538 108.817 19.8016 108.817 19.6094C108.817 19.4012 108.856 19.185 108.934 18.9608C109.448 18.8807 109.822 18.7526 110.056 18.5764C110.305 18.3842 110.43 18.0719 110.43 17.6394V4.8583C110.18 4.82627 109.916 4.81025 109.635 4.81025C109.37 4.81025 109.105 4.81826 108.84 4.83428C108.871 4.33777 108.926 3.9774 109.004 3.75317C110.375 3.25666 111.817 2.96036 113.328 2.86426V11.0326C114.123 9.51108 115.331 8.7503 116.951 8.7503C117.964 8.7503 118.79 9.07863 119.429 9.73531C120.068 10.376 120.387 11.2889 120.387 12.4741Z" fill="#023047"/>
<path fill-rule="evenodd" clip-rule="evenodd" d="M23.8942 7.22209H27.5821V11.0246H30.491V7.22209V4.23236H27.5821H21.1469C22.2425 5.03273 23.1779 6.04953 23.8942 7.22209ZM9.31806 4.23236H2.90885H0V7.22209V11.0246H2.90885V7.22209H6.57083C7.28711 6.04953 8.22254 5.03273 9.31806 4.23236ZM21.1185 21.3879C22.2198 20.5891 23.1606 19.5721 23.8815 18.3982H27.5821V14.8953H30.491V18.3982V21.3879H27.5821H21.1185ZM9.3465 21.3879H2.90885H0V18.3982V14.8953H2.90885V18.3982H6.58351C7.30435 19.5721 8.24519 20.5891 9.3465 21.3879Z" fill="#023047"/>
<path d="M15.2295 21.3879C19.8387 21.3879 23.5752 17.5475 23.5752 12.8101C23.5752 8.07277 19.8387 4.23236 15.2295 4.23236C10.6203 4.23236 6.88379 8.07277 6.88379 12.8101C6.88379 17.5475 10.6203 21.3879 15.2295 21.3879Z" fill="#023047"/>
<path d="M15.2298 18.1895C18.1204 18.1895 20.4636 15.7811 20.4636 12.8102C20.4636 9.83929 18.1204 7.43091 15.2298 7.43091C12.3393 7.43091 9.99609 9.83929 9.99609 12.8102C9.99609 15.7811 12.3393 18.1895 15.2298 18.1895Z" fill="#FB8500"/>
<path d="M19.6781 0H10.7822V2.58464H19.6781V0Z" fill="#023047"/>
</svg>
