<svg width="31" height="22" viewBox="0 0 31 22" fill="none" xmlns="http://www.w3.org/2000/svg">
<path fill-rule="evenodd" clip-rule="evenodd" d="M23.8942 7.22209H27.5821V11.0246H30.491V7.22209V4.23236H27.5821H21.1469C22.2425 5.03273 23.1779 6.04953 23.8942 7.22209ZM9.31806 4.23236H2.90885H0V7.22209V11.0246H2.90885V7.22209H6.57083C7.28711 6.04953 8.22254 5.03273 9.31806 4.23236ZM21.1185 21.3879C22.2198 20.5891 23.1606 19.5721 23.8815 18.3982H27.5821V14.8953H30.491V18.3982V21.3879H27.5821H21.1185ZM9.3465 21.3879H2.90885H0V18.3982V14.8953H2.90885V18.3982H6.58351C7.30435 19.5721 8.24519 20.5891 9.3465 21.3879Z" fill="#023047"/>
<path d="M15.2295 21.3879C19.8387 21.3879 23.5752 17.5475 23.5752 12.8101C23.5752 8.07277 19.8387 4.23236 15.2295 4.23236C10.6203 4.23236 6.88379 8.07277 6.88379 12.8101C6.88379 17.5475 10.6203 21.3879 15.2295 21.3879Z" fill="#023047"/>
<path d="M15.2298 18.1895C18.1204 18.1895 20.4636 15.7811 20.4636 12.8102C20.4636 9.83929 18.1204 7.43091 15.2298 7.43091C12.3393 7.43091 9.99609 9.83929 9.99609 12.8102C9.99609 15.7811 12.3393 18.1895 15.2298 18.1895Z" fill="#FB8500"/>
<path d="M19.6781 0H10.7822V2.58464H19.6781V0Z" fill="#023047"/>
</svg>
