<svg width="31" height="22" viewBox="0 0 31 22" fill="none" xmlns="http://www.w3.org/2000/svg">
<path fill-rule="evenodd" clip-rule="evenodd" d="M23.9197 7.17055H27.5763V10.946H30.4845V7.17055V4.20215H27.5763H21.1871C22.2768 4.99869 23.2071 6.008 23.9197 7.17055ZM9.27139 4.20215H2.90823H0V7.17055V10.946H2.90823V7.17055H6.53879C7.25139 6.008 8.18168 4.99869 9.27139 4.20215ZM21.1589 21.2353C22.2543 20.4403 23.19 19.4308 23.9071 18.2669H27.5763V14.789H30.4845V18.2669V21.2353H27.5763H21.1589ZM9.29959 21.2353H2.90823H0V18.2669V14.789H2.90823V18.2669H6.55141C7.26852 19.4308 8.20417 20.4403 9.29959 21.2353Z" fill="white"/>
<path d="M15.2268 21.2353C19.835 21.2353 23.5707 17.4223 23.5707 12.7187C23.5707 8.01515 19.835 4.20215 15.2268 4.20215C10.6185 4.20215 6.88281 8.01515 6.88281 12.7187C6.88281 17.4223 10.6185 21.2353 15.2268 21.2353Z" fill="white"/>
<path d="M15.2268 18.0597C18.1167 18.0597 20.4594 15.6685 20.4594 12.7188C20.4594 9.76907 18.1167 7.37787 15.2268 7.37787C12.3369 7.37787 9.99414 9.76907 9.99414 12.7188C9.99414 15.6685 12.3369 18.0597 15.2268 18.0597Z" fill="#FB8500"/>
<path d="M19.6732 0H10.7793V2.5662H19.6732V0Z" fill="white"/>
</svg>
