<svg width="15" height="16" viewBox="0 0 15 16" fill="none" xmlns="http://www.w3.org/2000/svg">
<path d="M1.22434 15.0202C0.893692 15.0202 0.60697 14.8988 0.364175 14.6559C0.121392 14.4132 0 14.1265 0 13.7958V3.09077C0 2.75894 0.121392 2.47122 0.364175 2.22758C0.60697 1.98394 0.893692 1.86211 1.22434 1.86211H8.49815L7.27379 3.09077H1.22434V13.7958H11.9294V7.70102L13.158 6.47237V13.7958C13.158 14.1265 13.0362 14.4132 12.7926 14.6559C12.5489 14.8988 12.2612 15.0202 11.9294 15.0202H1.22434ZM9.79164 2.09613L10.6288 2.91535L5.533 7.98893V9.48714H7.01324L12.1271 4.38192L12.9377 5.19256L7.49688 10.6513H4.36881V7.52326L9.79164 2.09613ZM12.9377 5.19256L9.79164 2.09613L11.5414 0.350638C11.7766 0.115451 12.0659 -0.00142455 12.4092 1.3102e-05C12.7526 0.00145075 13.0441 0.125748 13.2838 0.372904L14.6558 1.7629C14.8853 2.01005 15 2.29964 15 2.63165C15 2.96365 14.8779 3.24743 14.6336 3.48299L12.9377 5.19256Z" fill="white"/>
</svg>
